<svg preserveAspectRatio="none" width="100%" height="100%" overflow="visible" style="display: block;" viewBox="0 0 20 20" fill="none" xmlns="http://www.w3.org/2000/svg">
<g id="image" clip-path="url(#clip0_912_3837)">
<path id="Vector" d="M18.6822 8.18593C18.8529 7.67793 18.9403 7.14656 18.9403 6.61113C18.9403 5.72619 18.7016 4.85751 18.2484 4.09347C17.3371 2.52883 15.6474 1.56363 13.8186 1.56363C13.459 1.56363 13.0993 1.60122 12.7478 1.67539C11.7887 0.609601 10.414 0 8.97028 0H8.93879C8.93472 0 8.92964 0 8.92659 0C6.71171 0 4.74778 1.41021 4.06706 3.48895C2.64059 3.77648 1.41021 4.65939 0.689865 5.90602C0.238761 6.67513 0 7.54686 0 8.43587C0 9.68453 0.470409 10.8885 1.31877 11.8151C1.14707 12.3221 1.05969 12.8534 1.05969 13.3889C1.05969 14.2738 1.29845 15.1435 1.75159 15.9075C2.66294 17.4722 4.35255 18.4374 6.18136 18.4374C6.54102 18.4374 6.90069 18.3998 7.25222 18.3256C8.21133 19.3904 9.58598 20 11.0297 20H11.0612H11.0744C13.2903 20 15.2543 18.5898 15.935 16.509C17.3614 16.2215 18.5918 15.3396 19.3112 14.0919C19.7633 13.3249 20.001 12.4521 20 11.5652C20 10.3165 19.5306 9.11252 18.6822 8.18593V8.18593M11.0632 18.6924H11.0582C10.1712 18.6924 9.31267 18.3856 8.63094 17.8258C8.67158 17.8044 8.71222 17.7821 8.75083 17.7587L12.7874 15.4585C12.9926 15.3426 13.1186 15.1283 13.1186 14.8956V9.27711L14.8245 10.2494C14.8428 10.2586 14.856 10.2758 14.858 10.2951V14.9444C14.856 17.0119 13.1582 18.6883 11.0632 18.6924V18.6924M2.9017 15.2532C2.56845 14.6843 2.39268 14.0391 2.39268 13.3828C2.39268 13.1684 2.41097 12.953 2.44857 12.7417C2.47803 12.76 2.53086 12.7915 2.56845 12.8128L6.60401 15.113C6.80925 15.2309 7.06223 15.2309 7.26746 15.113L12.1951 12.3058V14.2494C12.1961 14.2697 12.1869 14.2891 12.1707 14.3012L8.09042 16.6248C7.51334 16.953 6.85903 17.1257 6.19253 17.1257C4.83515 17.1257 3.58141 16.4125 2.9017 15.2532V15.2532M1.83998 6.56033C2.28296 5.80036 2.98298 5.21819 3.81712 4.91643C3.81712 4.95098 3.81509 5.01194 3.81509 5.05359V9.65405V9.65812C3.81509 9.89078 3.94107 10.1052 4.1463 10.22L9.07391 13.0272L7.36805 13.9995C7.35077 14.0107 7.32944 14.0127 7.31013 14.0046L3.22987 11.6779C2.05639 11.0074 1.33299 9.76988 1.33299 8.43079C1.33299 7.77445 1.50775 7.12929 1.83998 6.56033V6.56033M15.8557 9.778L10.9281 6.97079L12.634 5.99949C12.6513 5.98832 12.6726 5.98628 12.6919 5.99441L16.7722 8.31801C17.9467 8.98755 18.6711 10.2261 18.6711 11.5641C18.6711 13.1349 17.6774 14.54 16.1849 15.0826V10.3439C16.1849 10.3429 16.1849 10.3409 16.1849 10.3388C16.1849 10.1072 16.0589 9.89281 15.8557 9.778V9.778M17.5535 7.25629C17.523 7.238 17.4712 7.20752 17.4336 7.18618L13.398 4.88595C13.2964 4.82804 13.1826 4.79756 13.0658 4.79756C12.95 4.79756 12.8352 4.82804 12.7346 4.88595L7.80696 7.69317V5.74956V5.74549C7.80696 5.7272 7.8161 5.70892 7.83134 5.69774L11.9116 3.37516C12.4887 3.04699 13.143 2.87427 13.8095 2.87427C15.9065 2.87427 17.6083 4.55271 17.6083 6.6223C17.6083 6.83465 17.59 7.04699 17.5535 7.25629V7.25629M6.87935 10.7209L5.17348 9.74956C5.15519 9.74041 5.143 9.72314 5.13995 9.70282V5.05359C5.14097 2.98501 6.84176 1.30759 8.93879 1.30759C9.82677 1.30759 10.6873 1.61443 11.3701 2.17526C11.3294 2.1966 11.2898 2.21895 11.2502 2.24232L7.21361 4.54255C7.0094 4.65735 6.8824 4.87275 6.8824 5.10541V5.10846L6.87935 10.7209M7.80594 8.74981L10.0005 7.49911L12.1951 8.74879V11.2492L10.0005 12.4999L7.80594 11.2492V8.74981" fill="var(--fill-0, black)"/>
</g>
<defs>
<clipPath id="clip0_912_3837">
<rect width="20" height="20" fill="white"/>
</clipPath>
</defs>
</svg>
