<svg preserveAspectRatio="none" width="100%" height="100%" overflow="visible" style="display: block;" viewBox="0 0 17 19.6192" fill="none" xmlns="http://www.w3.org/2000/svg">
<g id="image" clip-path="url(#clip0_912_3874)">
<path id="Vector" d="M17 5.79557H15.1123V0.0558129L8.97291 5.2494V0.129566H8.02808V5.19458L2.36108 0V5.79557H0V14.2951H2.36108V19.6192L8.02808 14.4206V19.4897H8.97291V14.5462L14.6399 19.5993V14.2951H17V5.79557M14.1665 2.09199V5.79557H9.78918L14.1665 2.09199M3.30592 2.1468L7.28657 5.79557H3.30492V2.1468H3.30592M0.944832 13.3512V6.7404H7.35932L2.36108 11.7386V13.3512H0.944832M3.30592 17.4714V12.1293L8.02808 7.40816V13.1389L3.30592 17.4724V17.4714M13.6941 17.4914L8.97291 13.2815V7.40716L13.6941 12.1293V17.4914M16.0562 13.3512H14.6399V11.7386L9.64068 6.7404H16.0562V13.3512" fill="var(--fill-0, black)"/>
</g>
<defs>
<clipPath id="clip0_912_3874">
<rect width="17" height="19.6192" fill="white"/>
</clipPath>
</defs>
</svg>
