<svg preserveAspectRatio="none" width="100%" height="100%" overflow="visible" style="display: block;" viewBox="0 0 30.1137 32" fill="none" xmlns="http://www.w3.org/2000/svg">
<g id="Group">
<path id="Vector" d="M6.53125 5.42841C7.59079 7.71407 8.65032 9.99973 9.70986 12.2781C9.82597 11.714 10.0655 10.9008 10.5807 10.0364C12.1628 7.39173 14.9205 6.71775 15.2833 6.63717C18.0192 6.01447 20.1673 7.18661 20.7406 7.5236C22.2211 8.4027 23.0411 9.57483 23.4185 10.2049H29.841C29.4927 9.01807 28.4332 5.98517 25.4723 3.54566C24.8119 3.00355 22.4025 1.12081 18.7087 0.615329C15.3631 0.161126 12.7941 1.07686 12.0249 1.38454C9.05672 2.54935 7.28599 4.48337 6.53125 5.42108V5.42841Z" fill="var(--fill-0, #B3B435)"/>
<path id="Vector_2" d="M30.1137 12.278H15.5052V15.8237H30.1137V12.278Z" fill="var(--fill-0, #AA3D27)"/>
<path id="Vector_3" d="M23.4021 17.8678H29.948C29.5851 19.0693 28.6127 21.6993 26.1307 24.0362C23.6415 26.3805 20.9709 27.179 19.759 27.4574C17.981 25.3841 16.2103 23.3036 14.4323 21.2304C15.3104 21.5088 17.4948 22.0655 19.7082 21.2084C20.5428 20.8861 21.1451 20.4539 21.283 20.3586C22.4514 19.5088 23.09 18.4759 23.3948 17.8678H23.4021Z" fill="var(--fill-0, #1C3360)"/>
<path id="Vector_4" d="M0.760558 8.34408C0.927471 12.344 1.79107 15.4575 2.50952 17.4721C3.61985 20.5855 5.03499 22.9152 5.7099 23.9994C6.33401 25.0177 6.91458 25.8455 7.35 26.4462C6.62429 25.8821 5.64459 25.0397 4.62133 23.8968C3.4094 22.5342 0.862157 19.6552 0.172733 15.2743C-0.26995 12.4539 0.216275 10.0217 0.753301 8.34408H0.760558Z" fill="var(--fill-0, #B3B435)"/>
<path id="Vector_5" d="M2.07292 4.34408C3.33565 9.06192 4.90318 12.8567 6.21672 15.6185C7.66088 18.6588 9.22841 21.9114 12.1821 25.5524C14.4463 28.3508 16.7032 30.3581 18.3724 31.6914C16.6016 31.0761 14.0326 29.9625 11.3838 27.8966C10.3678 27.1055 8.51722 25.6403 6.79003 23.1788C4.22102 19.5305 3.48079 15.9116 2.96554 13.3842C2.53737 11.3036 2.34869 9.25239 2.28337 8.49783C2.13097 6.83486 2.08743 5.41365 2.08017 4.34408H2.07292Z" fill="var(--fill-0, #AA3D27)"/>
<path id="Vector_6" d="M2.30618 0C3.0464 2.62265 3.75034 4.80575 4.30914 6.44674C5.23079 9.1573 6.55158 12.9741 8.80128 17.6186C9.54151 19.1424 10.289 20.6808 11.5009 22.6442C12.0887 23.5965 14.2441 27.025 16.9728 29.2814C17.7565 29.926 18.4242 30.3436 18.8814 30.6073C19.4982 30.959 20.3763 31.4498 21.6246 31.7502C22.4954 31.9626 23.2719 32.0066 23.8743 31.9993C23.5114 31.8674 22.9816 31.6549 22.3648 31.3473C20.5795 30.4608 19.0628 29.2521 17.205 27.2008C15.0061 24.7687 13.6781 22.6368 12.1758 20.212C10.7317 17.875 9.76648 16.0509 9.01899 14.6443C7.27003 11.3257 6.08713 8.68844 4.59217 5.33321C3.61971 3.15011 2.83595 1.31865 2.29167 0.0146517L2.30618 0Z" fill="var(--fill-0, #1C3360)"/>
</g>
</svg>
