<svg preserveAspectRatio="none" width="100%" height="100%" overflow="visible" style="display: block;" viewBox="0 0 24.06 19" fill="none" xmlns="http://www.w3.org/2000/svg">
<g id="Icon">
<path id="Vector" d="M20.927 18.9072H3.98654C3.72678 18.9072 3.50721 18.8175 3.32785 18.6382C3.14849 18.4588 3.05881 18.2393 3.05881 17.9795C3.05881 17.7321 3.14849 17.5156 3.32785 17.3301C3.50721 17.1445 3.72678 17.0518 3.98654 17.0518H18.0139L2.65061 1.70703C2.46506 1.52148 2.37229 1.30192 2.37229 1.04834C2.37229 0.794759 2.46506 0.575195 2.65061 0.389648C2.73719 0.30306 2.83924 0.238118 2.95676 0.194824C3.07427 0.15153 3.18869 0.129883 3.30002 0.129883C3.42372 0.129883 3.54123 0.15153 3.65256 0.194824C3.76389 0.238118 3.86903 0.30306 3.96799 0.389648L19.9992 16.4209V1.03906C19.9992 0.791667 20.0889 0.575195 20.2683 0.389648C20.4476 0.204102 20.6672 0.111328 20.927 0.111328C21.1744 0.111328 21.3877 0.204102 21.5671 0.389648C21.7465 0.575195 21.8362 0.791667 21.8362 1.03906V17.9795C21.8362 18.2393 21.7465 18.4588 21.5671 18.6382C21.3877 18.8175 21.1744 18.9072 20.927 18.9072Z" fill="var(--fill-0, white)"/>
</g>
</svg>
