<svg preserveAspectRatio="none" width="100%" height="100%" overflow="visible" style="display: block;" viewBox="0 0 54.4819 33.501" fill="none" xmlns="http://www.w3.org/2000/svg">
<g id="Icon">
<path id="Vector" d="M18.5547 33.501H1.61426C1.35449 33.501 1.13493 33.4113 0.955566 33.2319C0.776204 33.0526 0.686523 32.833 0.686523 32.5732C0.686523 32.3258 0.776204 32.1094 0.955566 31.9238C1.13493 31.7383 1.35449 31.6455 1.61426 31.6455H15.6416L0.27832 16.3008C0.0927734 16.1152 0 15.8957 0 15.6421C0 15.3885 0.0927734 15.1689 0.27832 14.9834C0.364909 14.8968 0.46696 14.8319 0.584473 14.7886C0.701986 14.7453 0.816406 14.7236 0.927734 14.7236C1.05143 14.7236 1.16895 14.7453 1.28027 14.7886C1.3916 14.8319 1.49674 14.8968 1.5957 14.9834L17.627 31.0146V15.6328C17.627 15.3854 17.7166 15.1689 17.896 14.9834C18.0754 14.7979 18.2949 14.7051 18.5547 14.7051C18.8021 14.7051 19.0155 14.7979 19.1948 14.9834C19.3742 15.1689 19.4639 15.3854 19.4639 15.6328V32.5732C19.4639 32.833 19.3742 33.0526 19.1948 33.2319C19.0155 33.4113 18.8021 33.501 18.5547 33.501Z" fill="var(--fill-0, white)"/>
</g>
</svg>
