<svg preserveAspectRatio="none" width="100%" height="100%" overflow="visible" style="display: block;" viewBox="0 0 56.4819 19.7959" fill="none" xmlns="http://www.w3.org/2000/svg">
<g id="Icon">
<g id="Vector">
</g>
<path id="Vector_2" d="M18.5547 18.7959H1.61426C1.35449 18.7959 1.13493 18.7062 0.955566 18.5269C0.776204 18.3475 0.686523 18.1279 0.686523 17.8682C0.686523 17.6208 0.776204 17.4043 0.955566 17.2188C1.13493 17.0332 1.35449 16.9404 1.61426 16.9404H15.6416L0.27832 1.5957C0.0927734 1.41016 0 1.19059 0 0.937012C0 0.683431 0.0927734 0.463867 0.27832 0.27832C0.364909 0.191732 0.46696 0.12679 0.584473 0.0834961C0.701986 0.0402018 0.816406 0.0185547 0.927734 0.0185547C1.05143 0.0185547 1.16895 0.0402018 1.28027 0.0834961C1.3916 0.12679 1.49674 0.191732 1.5957 0.27832L17.627 16.3096V0.927734C17.627 0.680339 17.7166 0.463867 17.896 0.27832C18.0754 0.0927734 18.2949 0 18.5547 0C18.8021 0 19.0155 0.0927734 19.1948 0.27832C19.3742 0.463867 19.4639 0.680339 19.4639 0.927734V17.8682C19.4639 18.1279 19.3742 18.3475 19.1948 18.5269C19.0155 18.7062 18.8021 18.7959 18.5547 18.7959Z" fill="var(--fill-0, white)"/>
</g>
</svg>
